<svg id="Слой_1" data-name="Слой 1" xmlns="http://www.w3.org/2000/svg" xmlns:xlink="http://www.w3.org/1999/xlink" viewBox="0 0 207.41 40.87"><defs><style>.cls-1{fill:none;}.cls-2{clip-path:url(#clip-path);}.cls-3{fill:#e7434e;}.cls-4{fill:#fff;}</style><clipPath id="clip-path" transform="translate(0 0)"><rect class="cls-1" width="207.41" height="40.87"/></clipPath></defs><title>hero-logo</title><g class="cls-2"><path class="cls-3" d="M20.23,9.23a59.73,59.73,0,0,1-7.7,1.16A20.18,20.18,0,0,1,30.17,0a25.26,25.26,0,0,1,6.63.78,25.21,25.21,0,0,1,8.72,4.6c.81.59,1.64,1.2,2.57,1.8.46.3.93.61,1.45.9a32.23,32.23,0,0,0,9.26,3.61A11.91,11.91,0,0,1,62,17.82c-8.83-1.39-13.66-4-16.9-6.14-.93-.62-1.76-1.21-2.57-1.8l-.19-.14c-3.51-2.53-6.06-4.36-12.21-4.36h-.11a14.63,14.63,0,0,0-9.84,3.85" transform="translate(0 0)"/><path class="cls-3" d="M62,23.07a12.06,12.06,0,0,1-3.26,6.12,32.48,32.48,0,0,0-9.25,3.59c-.51.3-1,.61-1.44.9-.93.6-1.76,1.21-2.57,1.79-2.56,1.84-5,3.63-8.73,4.6a25.19,25.19,0,0,1-6.62.79A20.18,20.18,0,0,1,12.53,30.48a59.73,59.73,0,0,1,7.7,1.16,14.69,14.69,0,0,0,9.84,3.85h.11c6.15,0,8.69-1.83,12.21-4.37l.19-.14c.81-.59,1.64-1.18,2.57-1.79,3.61-2.38,8.42-4.79,16.9-6.12" transform="translate(0 0)"/><path class="cls-3" d="M80.35,24.69a2.7,2.7,0,0,1-2.69,2.69c-2,0-3.9,0-5.67.12a22.31,22.31,0,0,0,1-5.42C74.47,22,76,22,77.66,22a2.69,2.69,0,0,1,2.69,2.69" transform="translate(0 0)"/><path class="cls-3" d="M73,18.79a22.3,22.3,0,0,0-1-5.42c1.8.08,3.69.12,5.67.12a2.69,2.69,0,0,1,0,5.38c-1.63,0-3.18,0-4.67-.08" transform="translate(0 0)"/><path class="cls-4" d="M0,15.67a2.81,2.81,0,0,1,2.81-2.19c2,0,3.78,0,5.48-.13a68.82,68.82,0,0,0,13.2-1.67A33.28,33.28,0,0,0,30.76,8.1h0a13.27,13.27,0,0,1,6.9,1.74.07.07,0,0,1,0,.11c-4,2.89-8.8,6.22-19.4,7.88a89.3,89.3,0,0,1-11,1c-1.48.05-3,.08-4.66.08A2.69,2.69,0,0,1,0,15.67" transform="translate(0 0)"/><path class="cls-4" d="M18.3,23.05c10.6,1.66,15.41,5,19.4,7.87a.07.07,0,0,1,0,.11,13.09,13.09,0,0,1-6.89,1.75h0a32.85,32.85,0,0,0-9.22-3.58A69,69,0,0,0,8.34,27.51q-2.63-.12-5.65-.12A2.69,2.69,0,0,1,0,24.2,2.79,2.79,0,0,1,2.84,22c1.57,0,3.07,0,4.51.08a89.52,89.52,0,0,1,11,1" transform="translate(0 0)"/><path class="cls-4" d="M70.34,20.17v.51a20,20,0,0,1-2.54,9.8A20.17,20.17,0,0,1,50.17,40.87a25.35,25.35,0,0,1-6.48-.76.06.06,0,0,1,0-.12c1.22-.74,2.33-1.54,3.42-2.33.78-.57,1.59-1.16,2.48-1.74l.7-.44a14.67,14.67,0,0,0,9.82-3.84h0a14.79,14.79,0,0,0,4.84-11v-.51A14.8,14.8,0,0,0,50.29,5.38c-.25-.15-.48-.3-.71-.44-.89-.59-1.69-1.17-2.48-1.74C46,2.41,44.89,1.61,43.67.86a.07.07,0,0,1,0-.12A25.48,25.48,0,0,1,50.17,0,20.2,20.2,0,0,1,70.34,20.17" transform="translate(0 0)"/><path class="cls-4" d="M103.47,5.9a1.4,1.4,0,0,1,.43.12,1.44,1.44,0,0,1,.37.26,4.2,4.2,0,0,1,.4.45L120,26.22q-.08-.7-.11-1.38t0-1.26V5.87h4.77V35h-2.8a2.47,2.47,0,0,1-1.07-.2,2.38,2.38,0,0,1-.83-.73l-15.23-19.4q.06.65.09,1.28t0,1.16V35H100V5.87h2.84a5,5,0,0,1,.6,0" transform="translate(0 0)"/><path class="cls-4" d="M147.41,24l-3.55-9.69q-.24-.64-.53-1.52t-.57-1.9q-.28,1-.55,1.91t-.53,1.55L138.12,24l-1.39,3.83-2.18,5.94a1.92,1.92,0,0,1-.63.85,1.79,1.79,0,0,1-1.16.38h-4.21L140,5.87h5.54L157,35h-4.19a1.83,1.83,0,0,1-1.16-.35,2,2,0,0,1-.65-.88l-2.18-5.94Z" transform="translate(0 0)"/><path class="cls-4" d="M197.84,24l-3.55-9.69q-.24-.64-.53-1.52t-.57-1.9q-.28,1-.55,1.91t-.53,1.55L188.55,24l-1.39,3.83L185,33.77a1.92,1.92,0,0,1-.63.85,1.79,1.79,0,0,1-1.16.38H179L190.42,5.87H196L207.41,35h-4.19a1.83,1.83,0,0,1-1.16-.35,2,2,0,0,1-.65-.88l-2.18-5.94Z" transform="translate(0 0)"/><path class="cls-4" d="M153.72,5.87h4.37a1.83,1.83,0,0,1,1.15.34,2.1,2.1,0,0,1,.66.89l6.85,17.77q.34.87.65,1.9T168,29a25,25,0,0,1,1.15-4.09L176,7.1a2.11,2.11,0,0,1,.64-.85,1.74,1.74,0,0,1,1.15-.38h4.37L170.38,35h-4.9Z" transform="translate(0 0)"/></g></svg>